<?xml version="1.0" encoding="iso-8859-1"?>
<!-- Generator: Adobe Illustrator 18.0.0, SVG Export Plug-In . SVG Version: 6.00 Build 0)  -->
<!DOCTYPE svg PUBLIC "-//W3C//DTD SVG 1.1//EN" "http://www.w3.org/Graphics/SVG/1.1/DTD/svg11.dtd">
<svg version="1.1" id="Capa_1" xmlns="http://www.w3.org/2000/svg" xmlns:xlink="http://www.w3.org/1999/xlink" x="0px" y="0px"
	 viewBox="0 0 475.806 475.806" style="enable-background:new 0 0 475.806 475.806;" xml:space="preserve">
<path d="M370.483,0h-36.208c-4.511,0-8.377,9.178-10.311,22.448H308.45C306.516,9.178,302.649,0,298.137,0h-88.696
	c-38.132,14.761-72.282,38.257-99.683,68.609l-13.822,15.32c-2.306,2.547-2.888,6.22-1.498,9.364
	c1.398,3.137,4.519,5.164,7.951,5.164c1.406,0,2.788-0.342,4.022-0.986l21.757-11.352c24.661-12.858,53.646-14.528,79.611-4.566
	l1.662,0.637h21.609v149.362c-4.581,0.614-8.293,4.628-8.713,9.939l-22.455,172.438c-1.25,15.894,3.471,31.642,12.982,43.405
	c9.521,11.772,22.969,18.472,37.07,18.472c14.1,0,27.557-6.7,37.076-18.472c9.513-11.763,14.226-27.511,12.976-43.405
	l-22.449-172.438c-0.418-5.311-4.13-9.325-8.719-9.939V82.19h29.319c4.511,0,8.379-9.178,10.313-22.448h15.514
	c1.934,13.27,5.799,22.448,10.311,22.448h36.208c6.421,0,11.631-18.395,11.631-41.099C382.113,18.395,376.904,0,370.483,0z"/>
<g>
</g>
<g>
</g>
<g>
</g>
<g>
</g>
<g>
</g>
<g>
</g>
<g>
</g>
<g>
</g>
<g>
</g>
<g>
</g>
<g>
</g>
<g>
</g>
<g>
</g>
<g>
</g>
<g>
</g>
</svg>
