<?xml version="1.0" encoding="iso-8859-1"?>
<!-- Generator: Adobe Illustrator 18.0.0, SVG Export Plug-In . SVG Version: 6.00 Build 0)  -->
<!DOCTYPE svg PUBLIC "-//W3C//DTD SVG 1.1//EN" "http://www.w3.org/Graphics/SVG/1.1/DTD/svg11.dtd">
<svg version="1.1" id="Capa_1" xmlns="http://www.w3.org/2000/svg" xmlns:xlink="http://www.w3.org/1999/xlink" x="0px" y="0px"
	 viewBox="0 0 477.066 477.066" style="enable-background:new 0 0 477.066 477.066;" xml:space="preserve">
<g>
	<path d="M42.132,250.901h162.485c6.397-11.165,14.116-21.454,22.991-30.647H55.231c-3.463,0-6.274-2.811-6.274-6.273V48.181
		c0-3.464,2.811-6.273,6.274-6.273h268.342c3.462,0,6.273,2.81,6.273,6.273v125.198c2.912-0.162,5.792-0.442,8.743-0.442
		c7.259,0,14.357,0.676,21.353,1.654V34.53c0-12.843-10.421-23.263-23.263-23.263H42.132c-12.843,0-23.263,10.421-23.263,23.263
		v193.108C18.869,240.482,29.29,250.901,42.132,250.901z"/>
	<path d="M15.499,279.312L1.383,306.055c-1.957,3.719-1.832,8.183,0.342,11.787c2.166,3.595,6.056,5.793,10.257,5.793H184.39
		c0.428-17.82,3.906-34.864,9.901-50.712H26.098C21.649,272.923,17.573,275.384,15.499,279.312z"/>
	<path d="M437.046,309.479c-9.147-9.147-20.491-22.284-41.643-17.952c-1.048,0.218-2.088-0.38-2.422-1.398
		c-2.78-8.463-9.053-14.52-17.206-17.206c-1.01-0.334-1.616-1.374-1.398-2.422c4.558-22.215-10.499-34.196-17.952-41.643
		c-2.648-2.648-6.655,1.358-4.007,4.007l7.797,7.795c7.531,7.531,10.753,18.262,8.611,28.707c-0.25,1.21-1.314,2.096-2.556,2.134
		c-9.193,0.234-14.792,4.115-20.39,9.715c19.59,4.046,34.77,19.256,38.808,38.808c5.683-5.683,9.481-11.337,9.715-20.39
		c0.108-4.201,18.526-6.259,30.849,6.063l7.787,7.789C435.687,316.134,439.694,312.126,437.046,309.479z"/>
	<path d="M385.55,337.401l8.937,8.937c0.7,0.03,1.15,0.046,1.91,0.086c3.037,0.146,5.777,1.918,7.153,4.635l4.441,8.781l9.705,9.707
		c1.872-0.964,3.122-3.146,1.856-5.645C406.096,337.261,408.41,338.473,385.55,337.401z"/>
	<path d="M292.025,387.856c8.509,3.619,27.511,0.848,34.032-0.644c8.541-1.956,19.614,4.247,17.028,12.719l-6.491,21.229
		c-1.638,5.373,6.483,7.857,8.121,2.476c5.389-17.618,13.006-31.416-0.348-40.314c-1.134-0.746-1.056-2.424,0.124-3.068
		c4.674-2.562,7.647-4.861,9.845-6.607l-29.033-29.033l-34.894,34.894C287.847,382.08,288.678,386.428,292.025,387.856z"/>
	<path d="M359.221,311.07l21.018,21.02c-0.348-3.588-0.108-8.921-2.454-15.948C375.146,308.245,365.463,305.837,359.221,311.07z"/>
	<path d="M302.002,246.344c-2.492-1.258-4.682-0.016-5.653,1.856l9.521,9.519c11.399,5.497,13.239,6.297,13.767,13.768l8.859,8.859
		C327.361,256.539,327.401,259.186,302.002,246.344z"/>
	<path d="M244.745,329.31l21.222-6.491c8.261-2.516,14.714,8.339,12.727,17.028c-1.452,6.367-1.562,10.475-2.594,21.927
		c-1.212,13.487,6.041,17.976,10.297,13.72l34.894-34.894l-29.125-29.126c-1.694,2.26-3.937,5.217-6.523,9.939
		c-0.636,1.18-2.314,1.258-3.068,0.132c-3.952-5.979-11.795-9.077-19.086-6.849l-21.228,6.493
		C236.833,322.849,239.387,330.956,244.745,329.31z"/>
	<path d="M334.116,285.859c-0.062,0-0.108-0.062-0.17-0.062l20.965,20.964C360.773,299.788,359.291,284.981,334.116,285.859z"/>
	<path d="M338.59,188.839c-76.359,0-138.484,62.125-138.484,138.484s62.125,138.476,138.484,138.476s138.476-62.117,138.476-138.476
		S414.949,188.839,338.59,188.839z M397.105,416.414c-16.818,11.081-36.914,17.58-58.515,17.58
		c-58.825,0-106.68-47.854-106.68-106.672c0-21.602,6.499-41.697,17.588-58.515c1.474-2.252,3.082-4.395,4.72-6.523l149.401,149.402
		C401.499,413.324,399.349,414.932,397.105,416.414z M430.065,381.916c-1.398,2.33-2.85,4.62-4.41,6.833L277.155,240.249
		c2.214-1.56,4.504-3.012,6.833-4.41c15.996-9.583,34.63-15.196,54.602-15.196c58.817,0,106.672,47.854,106.672,106.68
		C445.261,347.286,439.648,365.92,430.065,381.916z"/>
</g>
<g>
</g>
<g>
</g>
<g>
</g>
<g>
</g>
<g>
</g>
<g>
</g>
<g>
</g>
<g>
</g>
<g>
</g>
<g>
</g>
<g>
</g>
<g>
</g>
<g>
</g>
<g>
</g>
<g>
</g>
</svg>
