<?xml version="1.0" encoding="iso-8859-1"?>
<!-- Generator: Adobe Illustrator 18.0.0, SVG Export Plug-In . SVG Version: 6.00 Build 0)  -->
<!DOCTYPE svg PUBLIC "-//W3C//DTD SVG 1.1//EN" "http://www.w3.org/Graphics/SVG/1.1/DTD/svg11.dtd">
<svg version="1.1" id="Capa_1" xmlns="http://www.w3.org/2000/svg" xmlns:xlink="http://www.w3.org/1999/xlink" x="0px" y="0px"
	 viewBox="0 0 477.088 477.088" style="enable-background:new 0 0 477.088 477.088;" xml:space="preserve">
<g>
	<path d="M202.685,111.416c18.908-11.438,28.885-33.287,25.135-55.067l-4.03-23.403c-3.27-19.024-19.762-32.922-39.065-32.922
		c-5.792,0-10.489,4.698-10.489,10.49v48.273c0,8.766-7.105,15.871-15.872,15.871h-36.51c-8.767,0-15.87-7.105-15.87-15.871V10.513
		c0-5.792-4.697-10.49-10.491-10.49c-19.296,0-35.796,13.899-39.064,32.922l-4.031,23.403c-3.75,21.78,6.227,43.63,25.135,55.067
		l20.624,12.478v229.323l-20.624,12.478c-18.908,11.438-28.885,33.288-25.135,55.068l4.031,23.403
		c3.268,19.024,19.76,32.922,39.064,32.922c5.793,0,10.491-4.698,10.491-10.491v-48.273c0-8.767,7.104-15.872,15.87-15.872h36.51
		c8.767,0,15.872,7.105,15.872,15.872v48.273c0,5.793,4.697,10.491,10.489,10.491c19.304,0,35.796-13.898,39.065-32.922l4.03-23.403
		c3.75-21.78-6.227-43.629-25.135-55.068l-20.624-12.478V123.894L202.685,111.416z"/>
	<path d="M409.568,233.702h-42.185V87.408c7.337-2.811,12.593-9.815,12.593-18.138V0h-56.984v69.269
		c0,8.324,5.248,15.32,12.587,18.138v146.295h-42.187c-8.781,0-15.902,7.121-15.902,15.902c0,8.783,7.121,15.902,15.902,15.902
		h3.517v175.15c0,20.118,16.314,36.432,36.432,36.432h39.795c20.118,0,36.432-16.314,36.432-36.432v-175.15
		c8.781,0,15.902-7.119,15.902-15.902C425.471,240.823,418.35,233.702,409.568,233.702z M333.427,416.259
		c0,4.395-3.556,7.951-7.951,7.951c-4.395,0-7.951-3.556-7.951-7.951V305.604c0-4.395,3.556-7.951,7.951-7.951
		c4.395,0,7.951,3.556,7.951,7.951V416.259z M359.432,416.259c0,4.395-3.557,7.951-7.951,7.951c-4.395,0-7.951-3.556-7.951-7.951
		v-69.494v-41.161c0-4.395,3.556-7.951,7.951-7.951c4.394,0,7.951,3.556,7.951,7.951v41.161V416.259z M385.435,416.259
		c0,4.395-3.556,7.951-7.951,7.951c-4.395,0-7.951-3.556-7.951-7.951V305.604c0-4.395,3.556-7.951,7.951-7.951
		c4.395,0,7.951,3.556,7.951,7.951V416.259z"/>
</g>
<g>
</g>
<g>
</g>
<g>
</g>
<g>
</g>
<g>
</g>
<g>
</g>
<g>
</g>
<g>
</g>
<g>
</g>
<g>
</g>
<g>
</g>
<g>
</g>
<g>
</g>
<g>
</g>
<g>
</g>
</svg>
